# xmcd
#
# Track frame offsets: 
#        150
#        14667
#        31435
#        44947
#        59754
#        76597
#        94546
#        110433
#        128817
#        144364
#        158404
#
# Disc length: 2311 seconds
#
# Revision: 1
# Processed by: cddbd v1.5.2PL0 Copyright (c) Steve Scherf et al.
# Submitted via: ExactAudioCopyFreeDBPlugin 1.0
#
DISCID=8d09050b
DTITLE=Torgeir and Kjendisene - Landeveiens Ryttere
DYEAR=2007
DGENRE=Norsk
TTITLE0=Landeveiens Ryttere
TTITLE1=Ta En Du Kan 'A?!
TTITLE2=Hu Mjølka Ku
TTITLE3=Dette Vil Du Angre På!
TTITLE4=Vi Skal På Sydentur
TTITLE5=Baller Av Stål
TTITLE6=Stressa Dagen
TTITLE7=Naboen
TTITLE8=Vårens Første Dag
TTITLE9=Billy The Kødd
TTITLE10=Høy I Hatten
EXTD=Utgitt 17. august, www.underholdningsnett.no
EXTT0=
EXTT1=
EXTT2=
EXTT3=
EXTT4=
EXTT5=
EXTT6=
EXTT7=
EXTT8=
EXTT9=
EXTT10=
PLAYORDER=
